<?xml version="1.0" encoding="UTF-8" standalone="no"?><!-- Generator: Gravit.io --><svg xmlns="http://www.w3.org/2000/svg" xmlns:xlink="http://www.w3.org/1999/xlink" style="isolation:isolate" viewBox="0 0 128 128" width="128pt" height="128pt"><defs><clipPath id="_clipPath_9bSamVA25SsL8pLJlay0ZgqpWNXcdLHm"><rect width="128" height="128"/></clipPath></defs><g clip-path="url(#_clipPath_9bSamVA25SsL8pLJlay0ZgqpWNXcdLHm)"><clipPath id="_clipPath_yHNVp45cGR4o3gUGMg13yOYo2rYIXunl"><rect x="0" y="0" width="110" height="110" transform="matrix(1,0,0,1,0,0)" fill="rgb(255,255,255)"/></clipPath><g clip-path="url(#_clipPath_yHNVp45cGR4o3gUGMg13yOYo2rYIXunl)"><g><g><g><path d=" M 5.156 89.375 L 0 89.375 C 0 97.453 8.25 105.703 16.328 105.703 L 110 105.703 L 110 12.891 L 18.047 12.891 L 18.047 0 L 16.328 0 C 8.25 0 0 8.25 0 16.328 L 0 89.375 L 5.156 89.375 C 5.156 83.188 10.141 78.203 16.328 78.203 L 18.047 78.203 L 18.047 18.047 L 68.75 18.047 L 104.844 18.047 L 104.844 100.547 L 16.328 100.547 C 10.141 100.547 5.156 95.563 5.156 89.375 Z  M 12.891 73.047 C 9.109 73.477 7.477 74.594 5.156 77.344 L 5.156 16.328 C 5.156 10.742 7.563 6.102 12.891 5.328 L 12.891 73.047 L 12.891 73.047 L 12.891 73.047 Z " fill="rgb(255,255,255)"/><path d=" M 88.516 24.922 L 78.203 24.922 L 78.203 82.93 L 83.359 93.242 L 88.516 82.93 L 88.516 24.922 L 88.516 24.922 L 88.516 24.922 L 88.516 24.922 Z  M 85.078 28.359 L 85.078 37.813 L 81.641 37.813 L 81.641 28.359 L 85.078 28.359 L 85.078 28.359 L 85.078 28.359 L 85.078 28.359 Z  M 83.359 85.508 L 81.641 82.07 L 81.641 41.25 L 85.078 41.25 L 85.078 82.07 L 83.359 85.508 L 83.359 85.508 L 83.359 85.508 L 83.359 85.508 Z " fill="rgb(255,255,255)"/><path d=" M 36.094 66.172 L 36.094 69.609 L 42.969 69.609 L 38.672 93.414 L 42.023 94.016 L 46.406 69.609 L 56.719 69.609 L 61.102 94.016 L 64.453 93.414 L 60.156 69.609 L 67.031 69.609 L 67.031 66.172 L 59.555 66.172 L 57.578 54.828 C 60.242 52.938 61.875 49.758 61.875 46.406 C 61.875 41.336 58.18 37.039 53.281 36.266 L 53.281 24.922 L 49.844 24.922 L 49.844 36.266 C 44.945 37.125 41.25 41.336 41.25 46.406 C 41.25 49.758 42.883 52.852 45.547 54.828 L 43.57 66.172 L 36.094 66.172 L 36.094 66.172 L 36.094 66.172 L 36.094 66.172 Z  M 48.297 52.422 C 46.063 51.219 44.688 48.898 44.688 46.406 C 44.688 42.625 47.781 39.531 51.563 39.531 C 55.344 39.531 58.438 42.625 58.438 46.406 C 58.438 48.898 57.063 51.219 54.828 52.422 L 53.711 53.023 L 56.117 66.172 L 47.008 66.172 L 49.328 53.023 L 48.297 52.422 L 48.297 52.422 L 48.297 52.422 L 48.297 52.422 Z " fill="rgb(255,255,255)"/></g></g></g></g><circle vector-effect="non-scaling-stroke" cx="102.44348894348893" cy="102.99999999999999" r="25" fill="rgb(20,149,70)"/><rect x="98.943" y="87.088" width="7" height="30" transform="matrix(1,0,0,1,0,0)" fill="rgb(235,235,235)"/><rect x="98.943" y="88" width="7" height="30" transform="matrix(0,-1,1,0,-0.557,205.443)" fill="rgb(235,235,235)"/></g></svg>