<?xml version="1.0" encoding="UTF-8" standalone="no"?><!-- Generator: Gravit.io --><svg xmlns="http://www.w3.org/2000/svg" xmlns:xlink="http://www.w3.org/1999/xlink" style="isolation:isolate" viewBox="0 0 128 128" width="128pt" height="128pt"><defs><clipPath id="_clipPath_Wu2DYcbhU43mjwu6emXCt8kI5Yba8XJZ"><rect width="128" height="128"/></clipPath></defs><g clip-path="url(#_clipPath_Wu2DYcbhU43mjwu6emXCt8kI5Yba8XJZ)"><mask id="_mask_EQlko2crymGTihcS4oNDBpBkqnz13077" x="-200%" y="-200%" width="400%" height="400%"><rect x="-200%" y="-200%" width="400%" height="400%" style="fill:white;"/><path d=" M 55.377 106.704 L 55.504 100.836 C 55.56 98.224 57.663 96.15 60.2 96.205 L 72.882 96.479 C 74.203 96.471 75.467 95.921 76.395 94.952 C 77.322 93.982 77.837 92.673 77.826 91.313 L 77.824 91.41 C 77.827 91.284 77.97 84.661 77.975 84.422 C 78.028 83.518 78.383 82.661 78.979 81.995 C 79.966 80.874 80.523 79.422 80.547 77.91 L 80.564 76.483 C 80.58 75.582 81.135 74.783 81.959 74.477 L 84.175 74.524 C 85.005 74.563 85.811 74.224 86.378 73.597 C 87.081 72.783 87.26 71.622 86.836 70.624 C 84.534 65.356 82.544 59.948 80.877 54.432 C 80.583 53.384 80.454 52.293 80.496 51.203 L 80.724 40.525 C 80.785 37.66 80.461 34.801 79.76 32.029 L 79.748 31.981 C 78.638 27.421 76.497 23.196 73.499 19.652 Q 72.529 18.526 71.458 17.461 C 71.01 16.998 70.554 16.541 70.08 16.099 C 63.277 9.74 54.464 6.139 45.272 5.963 C 35.776 5.733 26.496 8.929 19.037 14.997 C 5.798 26.261 1.97 45.498 9.846 61.19 C 14.284 70.539 17.588 85.829 18.172 101.623 L 18.08 105.898" fill="black" stroke="none"/></mask><path d=" M 55.377 106.704 L 55.504 100.836 C 55.56 98.224 57.663 96.15 60.2 96.205 L 72.882 96.479 C 74.203 96.471 75.467 95.921 76.395 94.952 C 77.322 93.982 77.837 92.673 77.826 91.313 L 77.824 91.41 C 77.827 91.284 77.97 84.661 77.975 84.422 C 78.028 83.518 78.383 82.661 78.979 81.995 C 79.966 80.874 80.523 79.422 80.547 77.91 L 80.564 76.483 C 80.58 75.582 81.135 74.783 81.959 74.477 L 84.175 74.524 C 85.005 74.563 85.811 74.224 86.378 73.597 C 87.081 72.783 87.26 71.622 86.836 70.624 C 84.534 65.356 82.544 59.948 80.877 54.432 C 80.583 53.384 80.454 52.293 80.496 51.203 L 80.724 40.525 C 80.785 37.66 80.461 34.801 79.76 32.029 L 79.748 31.981 C 78.638 27.421 76.497 23.196 73.499 19.652 Q 72.529 18.526 71.458 17.461 C 71.01 16.998 70.554 16.541 70.08 16.099 C 63.277 9.74 54.464 6.139 45.272 5.963 C 35.776 5.733 26.496 8.929 19.037 14.997 C 5.798 26.261 1.97 45.498 9.846 61.19 C 14.284 70.539 17.588 85.829 18.172 101.623 L 18.08 105.898" fill="none" mask="url(#_mask_EQlko2crymGTihcS4oNDBpBkqnz13077)" vector-effect="non-scaling-stroke" stroke-width="4" stroke="rgb(255,255,255)" stroke-linejoin="miter" stroke-linecap="butt" stroke-miterlimit="10"/><path d=" M 55.377 106.704 L 55.504 100.836 C 55.56 98.224 57.663 96.15 60.2 96.205 L 72.882 96.479 C 74.203 96.471 75.467 95.921 76.395 94.952 C 77.322 93.982 77.837 92.673 77.826 91.313 L 77.824 91.41 C 77.827 91.284 77.97 84.661 77.975 84.422 C 78.028 83.518 78.383 82.661 78.979 81.995 C 79.966 80.874 80.523 79.422 80.547 77.91 L 80.564 76.483 C 80.58 75.582 81.135 74.783 81.959 74.477 L 84.175 74.524 C 85.005 74.563 85.811 74.224 86.378 73.597 C 87.081 72.783 87.26 71.622 86.836 70.624 C 84.534 65.356 82.544 59.948 80.877 54.432 C 80.583 53.384 80.454 52.293 80.496 51.203 L 80.724 40.525 C 80.785 37.66 80.461 34.801 79.76 32.029 L 79.748 31.981 C 78.638 27.421 76.497 23.196 73.499 19.652 Q 72.529 18.526 71.458 17.461 C 71.01 16.998 70.554 16.541 70.08 16.099 C 63.277 9.74 54.464 6.139 45.272 5.963 C 35.776 5.733 26.496 8.929 19.037 14.997 C 5.798 26.261 1.97 45.498 9.846 61.19 C 14.284 70.539 17.588 85.829 18.172 101.623 L 18.08 105.898" fill="none"/><path d=" M 14.768 25.795 C 14.846 22.318 18.285 19.567 22.443 19.654 C 26.601 19.74 29.914 22.633 29.836 26.109 C 29.759 29.585 26.32 32.337 22.162 32.25 C 18.004 32.163 14.691 29.271 14.768 25.795 Z " fill="none" vector-effect="non-scaling-stroke" stroke-width="2" stroke="rgb(255,255,255)" stroke-linejoin="miter" stroke-linecap="butt" stroke-miterlimit="10"/><path d=" M 52.04 44.427 C 52.13 40.371 55.412 37.146 59.363 37.228 C 63.314 37.311 66.448 40.67 66.358 44.726 C 66.267 48.781 62.986 52.007 59.035 51.924 C 55.083 51.842 51.949 48.482 52.04 44.427 Z " fill="none" vector-effect="non-scaling-stroke" stroke-width="2" stroke="rgb(255,255,255)" stroke-linejoin="miter" stroke-linecap="butt" stroke-miterlimit="10"/><path d=" M 24.017 61.695 C 24.068 59.377 26.361 57.543 29.133 57.601 C 31.905 57.659 34.114 59.587 34.062 61.905 C 34.01 64.222 31.718 66.057 28.946 65.999 C 26.174 65.941 23.965 64.012 24.017 61.695 Z " fill="none" vector-effect="non-scaling-stroke" stroke-width="2" stroke="rgb(255,255,255)" stroke-linejoin="miter" stroke-linecap="butt" stroke-miterlimit="10"/><mask id="_mask_SZ8FLtYVFgcOpAlduEttzVCJqMjo0VMI" x="-200%" y="-200%" width="400%" height="400%"><rect x="-200%" y="-200%" width="400%" height="400%" style="fill:white;"/><line x1="28.714" y1="29.252" x2="52.967" y2="41.295" fill="black" stroke="none"/></mask><line x1="28.714" y1="29.252" x2="52.967" y2="41.295" mask="url(#_mask_SZ8FLtYVFgcOpAlduEttzVCJqMjo0VMI)" vector-effect="non-scaling-stroke" stroke-width="2" stroke="rgb(255,255,255)" stroke-linejoin="miter" stroke-linecap="butt" stroke-miterlimit="10"/><mask id="_mask_cTtguTan5WfIOnQm4sOzJOie6uQI0k7n" x="-200%" y="-200%" width="400%" height="400%"><rect x="-200%" y="-200%" width="400%" height="400%" style="fill:white;"/><line x1="33.415" y1="59.791" x2="53.633" y2="48.782" fill="black" stroke="none"/></mask><line x1="33.415" y1="59.791" x2="53.633" y2="48.782" mask="url(#_mask_cTtguTan5WfIOnQm4sOzJOie6uQI0k7n)" vector-effect="non-scaling-stroke" stroke-width="2" stroke="rgb(255,255,255)" stroke-linejoin="miter" stroke-linecap="butt" stroke-miterlimit="10"/><mask id="_mask_4PccMXWQcumFciwQX53bSNNtSlyBOxWx" x="-200%" y="-200%" width="400%" height="400%"><rect x="-200%" y="-200%" width="400%" height="400%" style="fill:white;"/><line x1="23.417" y1="32.276" x2="27.877" y2="57.575" fill="black" stroke="none"/></mask><line x1="23.417" y1="32.276" x2="27.877" y2="57.575" mask="url(#_mask_4PccMXWQcumFciwQX53bSNNtSlyBOxWx)" vector-effect="non-scaling-stroke" stroke-width="2" stroke="rgb(255,255,255)" stroke-linejoin="miter" stroke-linecap="butt" stroke-miterlimit="10"/><circle vector-effect="non-scaling-stroke" cx="102.44348894348893" cy="102.99999999999999" r="25" fill="rgb(20,149,70)"/><rect x="98.943" y="87.088" width="7" height="30" transform="matrix(1,0,0,1,0,0)" fill="rgb(235,235,235)"/><rect x="98.943" y="88" width="7" height="30" transform="matrix(0,-1,1,0,-0.557,205.443)" fill="rgb(235,235,235)"/></g></svg>