<?xml version="1.0" encoding="UTF-8" standalone="no"?><!-- Generator: Gravit.io --><svg xmlns="http://www.w3.org/2000/svg" xmlns:xlink="http://www.w3.org/1999/xlink" style="isolation:isolate" viewBox="0 0 128 128" width="128pt" height="128pt"><defs><clipPath id="_clipPath_QxFF9s5iMGdApDRfaCCxhIa59IaSxOQj"><rect width="128" height="128"/></clipPath></defs><g clip-path="url(#_clipPath_QxFF9s5iMGdApDRfaCCxhIa59IaSxOQj)"><clipPath id="_clipPath_6gWM1QnrtcGg7bn58bAeZKQn3jKozXsa"><rect x="0" y="0" width="128" height="128" transform="matrix(1,0,0,1,0,0)" fill="rgb(255,255,255)"/></clipPath><g clip-path="url(#_clipPath_6gWM1QnrtcGg7bn58bAeZKQn3jKozXsa)"><g><path d=" M 84.792 66.375 L 43.201 66.375 L 43.201 67.254 C 43.201 69.61 42.38 71.761 41.081 73.316 L 41.068 73.332 C 39.756 74.887 37.941 75.845 35.953 75.845 L 31.25 75.845 C 29.262 75.845 27.447 74.871 26.135 73.332 L 26.122 73.316 C 24.81 71.761 24.002 69.61 24.002 67.254 L 24.002 66.375 L 11.998 66.375 L 11.998 118.53 C 11.998 119.834 12.448 121.011 13.177 121.875 C 13.906 122.739 14.899 123.273 15.999 123.273 L 112.007 123.273 C 113.107 123.273 114.101 122.739 114.83 121.875 C 115.558 121.011 116.009 119.834 116.009 118.53 L 116.009 66.375 L 104.005 66.375 L 104.005 67.254 C 104.005 69.61 103.183 71.761 101.885 73.316 L 101.871 73.332 C 100.56 74.887 98.744 75.845 96.757 75.845 L 92.053 75.845 C 90.066 75.845 88.251 74.871 86.939 73.332 L 86.926 73.316 C 85.614 71.761 84.806 69.61 84.806 67.254 L 84.806 66.375 L 84.792 66.375 L 84.792 66.375 Z  M 33.992 23.705 L 33.992 9.712 C 33.992 7.042 34.92 4.608 36.391 2.849 C 37.875 1.09 39.915 0.007 42.181 0.007 L 85.813 0.007 C 88.065 0.007 90.119 1.106 91.603 2.849 L 91.603 2.865 C 93.087 4.624 94.001 7.042 94.001 9.712 L 94.001 23.705 L 125.999 23.705 L 128 23.705 L 128 26.076 L 128 52.586 C 128 56.371 126.688 59.826 124.582 62.323 C 123.31 63.831 121.746 64.993 119.997 65.684 L 119.997 118.53 C 119.997 121.137 119.096 123.508 117.652 125.22 C 116.208 126.932 114.207 128 112.007 128 L 15.999 128 C 13.8 128 11.799 126.932 10.355 125.22 C 8.911 123.508 8.01 121.137 8.01 118.53 L 8.01 65.684 C 6.261 64.993 4.697 63.831 3.425 62.323 C 1.318 59.826 0.007 56.371 0.007 52.586 L 0.007 26.076 L 0.007 23.705 L 2.007 23.705 L 34.006 23.705 L 33.992 23.705 L 33.992 23.705 Z  M 89.986 23.705 L 89.986 9.712 C 89.986 8.346 89.509 7.105 88.754 6.21 L 88.754 6.21 C 87.999 5.315 86.952 4.749 85.799 4.749 L 42.168 4.749 C 41.015 4.749 39.968 5.315 39.213 6.21 C 38.458 7.105 37.981 8.346 37.981 9.712 L 37.981 23.705 L 89.973 23.705 L 89.986 23.705 L 89.986 23.705 Z  M 103.978 61.632 L 116.353 61.632 L 116.446 61.632 C 118.5 61.6 120.368 60.58 121.733 58.978 C 123.111 57.345 123.972 55.067 123.972 52.586 L 123.972 28.448 L 3.968 28.448 L 3.968 52.586 C 3.968 55.067 4.83 57.329 6.208 58.978 C 7.572 60.595 9.441 61.6 11.494 61.632 L 11.587 61.632 L 23.962 61.632 L 23.962 56.889 L 23.962 54.518 L 25.963 54.518 L 41.161 54.518 L 43.161 54.518 L 43.161 56.889 L 43.161 61.632 L 84.753 61.632 L 84.753 56.889 L 84.753 54.518 L 86.753 54.518 L 101.951 54.518 L 103.952 54.518 L 103.952 56.889 L 103.952 61.632 L 103.978 61.632 L 103.978 61.632 Z  M 99.977 59.26 L 88.78 59.26 L 88.78 67.27 C 88.78 68.322 89.138 69.296 89.721 69.987 L 89.734 70.003 C 90.317 70.694 91.139 71.118 92.027 71.118 L 96.73 71.118 C 97.618 71.118 98.44 70.694 99.023 70.003 L 99.036 69.987 C 99.619 69.296 99.977 68.322 99.977 67.27 L 99.977 59.26 L 99.977 59.26 Z  M 39.186 59.26 L 27.99 59.26 L 27.99 67.27 C 27.99 68.322 28.348 69.296 28.931 69.987 L 28.944 70.003 C 29.527 70.694 30.349 71.118 31.236 71.118 L 35.94 71.118 C 36.828 71.118 37.649 70.694 38.232 70.003 L 38.246 69.987 C 38.829 69.296 39.186 68.322 39.186 67.27 L 39.186 59.26 L 39.186 59.26 Z " fill="rgb(255,255,255)"/></g></g><circle vector-effect="non-scaling-stroke" cx="102.44348894348893" cy="102.99999999999999" r="25" fill="rgb(20,149,70)"/><rect x="98.943" y="87.088" width="7" height="30" transform="matrix(1,0,0,1,0,0)" fill="rgb(235,235,235)"/><rect x="98.943" y="88" width="7" height="30" transform="matrix(0,-1,1,0,-0.557,205.443)" fill="rgb(235,235,235)"/></g></svg>