<?xml version="1.0" encoding="UTF-8" standalone="no"?><!-- Generator: Gravit.io --><svg xmlns="http://www.w3.org/2000/svg" xmlns:xlink="http://www.w3.org/1999/xlink" style="isolation:isolate" viewBox="0 0 150 128" width="150pt" height="128pt"><defs><clipPath id="_clipPath_LNLiRbgBKbrKiKS20oYdGhMrqX4z0SQD"><rect width="150" height="128"/></clipPath></defs><g clip-path="url(#_clipPath_LNLiRbgBKbrKiKS20oYdGhMrqX4z0SQD)"><g><g><g><path d=" M 110.798 29.334 C 110.631 28.895 110.411 28.486 110.13 28.143 C 109.849 27.802 109.534 27.551 109.206 27.393 L 91.948 19.038 C 90.746 18.456 89.458 18.143 88.118 18.16 C 86.779 18.179 85.497 18.526 84.301 19.139 L 71.207 25.867 C 70.285 26.342 69.37 26.888 68.468 27.509 C 68.166 27.719 67.87 27.947 67.575 28.17 C 66.587 27.448 65.555 26.813 64.478 26.272 C 61.043 24.543 57.525 23.959 54.121 24.351 L 45.311 25.369 C 44.928 25.414 44.541 25.573 44.18 25.859 C 43.818 26.146 43.52 26.534 43.285 26.981 L 23.449 65.019 C 23.04 65.8 22.822 66.794 22.889 67.846 C 22.954 68.898 23.29 69.82 23.786 70.483 L 32.414 82.001 C 31.941 83.168 31.641 84.478 31.572 85.88 C 31.448 88.4 32.062 90.833 33.296 92.731 C 34.532 94.628 36.241 95.765 38.113 95.929 C 38.213 95.939 38.314 95.939 38.416 95.944 C 37.649 99.285 38.276 103.079 40.275 105.627 C 41.471 107.153 43.005 108.042 44.635 108.184 C 43.585 111.69 44.152 115.87 46.298 118.605 C 47.607 120.276 49.318 121.194 51.122 121.194 C 53 121.194 54.752 120.206 56.075 118.422 C 56.567 122.703 59.208 126.117 62.548 126.411 C 62.701 126.426 62.859 126.435 63.013 126.435 C 63.866 126.435 64.684 126.218 65.444 125.836 C 66.686 126.951 68.167 127.565 69.742 127.479 C 71.679 127.37 73.416 126.22 74.715 124.419 L 69.969 118.041 C 69.981 117.894 70.001 117.753 70.005 117.6 C 70.067 116.347 69.94 115.135 69.663 114.008 L 79.374 127.057 C 80.6 127.729 81.933 128.065 83.322 127.989 C 86.102 127.837 88.578 126.069 90.331 123.333 L 91.303 121.815 C 91.393 121.671 91.462 121.51 91.522 121.336 L 76.569 101.25 C 76.184 100.735 76.153 99.88 76.495 99.341 C 76.838 98.806 77.432 98.787 77.814 99.302 L 95.597 123.19 C 96.567 123.647 97.604 123.87 98.682 123.811 C 101.125 123.676 103.305 122.122 104.846 119.712 L 107.195 116.051 C 107.733 115.206 108.054 114.067 108.024 112.828 L 92.419 91.871 C 92.038 91.356 92.003 90.498 92.345 89.964 C 92.69 89.427 93.283 89.409 93.664 89.923 L 109.343 110.983 C 109.987 111.214 110.663 111.327 111.357 111.29 C 113.36 111.181 115.142 109.908 116.404 107.934 L 117.035 106.951 C 118.297 104.982 119.041 102.314 118.965 99.414 C 118.888 96.514 118.011 93.938 116.65 92.109 L 112.465 86.488 L 113.522 87.906 L 124.84 74.14 C 125.321 73.558 125.669 72.743 125.797 71.786 C 125.924 70.829 125.809 69.884 125.514 69.085 L 110.798 29.334 Z  M 38.31 91.853 C 37.249 91.76 36.278 91.116 35.575 90.037 C 34.874 88.961 34.527 87.58 34.598 86.147 C 34.732 83.336 36.479 81.134 38.566 81.134 C 38.654 81.134 38.744 81.137 38.833 81.144 C 39.894 81.239 40.864 81.883 41.567 82.962 C 42.269 84.04 42.616 85.42 42.548 86.852 C 42.402 89.783 40.511 92.051 38.31 91.853 Z  M 45.095 104.128 C 44.073 104.128 43.101 103.609 42.359 102.662 C 40.783 100.656 40.697 97.274 42.16 95.137 C 42.236 95.03 43.79 92.816 44.535 91.759 L 44.927 91.199 C 45.687 90.118 46.715 89.521 47.82 89.521 C 48.843 89.521 49.816 90.044 50.557 90.992 C 51.33 91.976 51.773 93.307 51.802 94.741 C 51.831 96.171 51.444 97.534 50.713 98.572 L 49.605 100.151 C 49.368 100.487 49.114 100.849 48.853 101.219 C 48.812 101.282 48.766 101.344 48.727 101.403 C 48.533 101.677 48.362 101.919 48.229 102.106 C 48.154 102.216 48.078 102.327 48 102.434 C 47.98 102.461 47.965 102.484 47.964 102.487 C 47.21 103.546 46.189 104.128 45.095 104.128 Z  M 53.988 115.469 C 53.231 116.528 52.213 117.11 51.121 117.11 C 50.098 117.11 49.124 116.587 48.383 115.64 C 46.808 113.633 46.722 110.253 48.18 108.125 C 48.214 108.075 49.127 106.774 50.161 105.304 C 50.161 105.303 50.161 105.303 50.161 105.303 L 50.929 104.211 C 52.274 102.293 52.715 101.67 52.863 101.452 C 52.881 101.431 52.901 101.406 52.915 101.384 L 52.918 101.381 C 53.048 101.192 53.123 101.087 53.126 101.083 C 53.885 100.003 54.914 99.405 56.02 99.405 C 57.043 99.405 58.014 99.927 58.757 100.874 C 59.53 101.86 59.971 103.192 60 104.623 C 60.029 106.058 59.642 107.42 58.909 108.464 C 58.838 108.565 54.142 115.249 53.988 115.469 Z  M 66.981 117.334 C 66.837 120.263 64.949 122.534 62.745 122.339 C 60.553 122.143 58.887 119.583 59.031 116.633 C 59.169 113.819 60.909 111.618 62.999 111.618 C 63.087 111.618 63.177 111.622 63.266 111.629 C 65.457 111.823 67.124 114.383 66.981 117.334 Z  M 111.439 85.11 L 80.438 43.476 L 80.788 42.287 C 80.969 41.667 80.946 40.934 80.681 40.318 C 80.415 39.704 79.971 39.346 79.506 39.313 L 77.202 39.127 L 74.685 38.926 L 74.494 42.945 C 74.492 43.029 73.993 52.168 70.533 60.425 C 66.987 68.898 62.287 71.82 61.571 72.008 C 60.771 72.217 59.931 72.416 59.234 72.416 C 58.755 72.416 58.386 72.325 58.07 72.13 L 56.893 71.396 C 56.399 71.087 56.023 70.522 55.824 69.8 C 55.631 69.104 55.633 68.343 55.824 67.65 L 67.615 32.793 L 69.62 31.014 L 70.428 30.6 L 70.426 30.6 L 85.245 22.986 C 86.176 22.509 87.152 22.258 88.143 22.246 L 88.225 22.245 C 89.187 22.245 90.139 22.469 91.051 22.912 L 108.309 31.266 L 123.028 71.016 L 111.439 85.11 Z " fill="rgb(255,255,255)"/><path d=" M 128.212 3.947 L 116.561 11.772 C 114.886 12.9 113.527 14.889 112.885 17.471 C 112.243 20.054 112.442 22.742 113.275 25.004 L 128.53 66.198 C 129.366 68.454 130.841 70.288 132.762 71.149 C 134.677 72.013 136.673 71.75 138.352 70.622 L 150 62.794 L 128.212 3.947 Z  M 138.322 62.818 C 136.775 62.818 135.516 61.128 135.516 59.041 C 135.516 56.951 136.775 55.257 138.322 55.257 C 139.872 55.257 141.13 56.951 141.13 59.041 C 141.13 61.128 139.872 62.818 138.322 62.818 Z " fill="rgb(255,255,255)"/><path d=" M 41.72 16.453 C 41.37 13.769 40.25 11.53 38.716 10.077 L 28.063 0 L 0 53.811 L 10.651 63.891 C 12.185 65.343 14.129 66.005 16.121 65.536 C 18.115 65.068 19.775 63.555 20.851 61.491 L 40.496 23.822 C 41.575 21.757 42.067 19.135 41.72 16.453 Z  M 14.738 53.005 C 14.507 55.072 13.078 56.494 11.544 56.18 C 10.01 55.871 8.956 53.945 9.188 51.878 C 9.419 49.812 10.849 48.391 12.379 48.701 C 13.914 49.014 14.968 50.941 14.738 53.005 Z " fill="rgb(255,255,255)"/></g></g></g></g></svg>