<?xml version="1.0" encoding="UTF-8" standalone="no"?><!-- Generator: Gravit.io --><svg xmlns="http://www.w3.org/2000/svg" xmlns:xlink="http://www.w3.org/1999/xlink" style="isolation:isolate" viewBox="0 0 128 128" width="128pt" height="128pt"><defs><clipPath id="_clipPath_OI09cWV2Yr95daI7fTzBOxUk36Uc1sVY"><rect width="128" height="128"/></clipPath></defs><g clip-path="url(#_clipPath_OI09cWV2Yr95daI7fTzBOxUk36Uc1sVY)"><path d=" M 17.991 32.154 L 33.734 32.469 L 41.504 29.687 C 41.671 29.634 41.828 29.608 41.985 29.608 L 41.985 29.595 L 57.645 29.595 L 62.502 21.945 L 63.103 21 L 63.991 21 L 79.993 21 L 80.511 21 L 80.992 21.394 L 94.534 32.482 L 110 32.364 L 110 32.167 L 110 29.333 L 111.998 29.333 L 126.002 29.333 L 128 29.333 L 128 32.167 L 128 78.003 L 128 80.837 L 126.002 80.837 L 111.998 80.837 L 110 80.837 L 110 78.003 L 110 75.392 L 100.63 75.392 L 90.538 82.15 L 93.581 86.677 C 94.34 87.805 94.303 89.603 93.507 90.679 C 93.313 90.941 93.1 91.125 92.869 91.256 L 59.736 110.782 C 58.987 111.228 58.145 110.966 57.59 110.205 L 29.239 75.365 L 18 75.077 L 18 78.003 L 18 80.837 L 16.002 80.837 L 1.998 80.837 L 0 80.837 L 0 78.003 L 0 32.167 L 0 29.333 L 1.998 29.333 L 16.002 29.333 L 18 29.333 L 18 32.167 L 18 32.167 L 17.991 32.154 Z  M 121.997 63.555 L 121.997 69.237 L 117.992 69.237 L 117.992 63.555 L 121.997 63.555 Z  M 9.99 63.555 L 9.99 69.237 L 5.985 69.237 L 5.985 63.555 L 9.99 63.555 Z  M 109.99 37.993 L 93.997 38.111 L 93.461 38.111 L 92.998 37.731 L 79.475 26.656 L 64.879 26.656 L 60.124 34.148 L 60.115 34.162 L 60.087 34.214 L 59.93 34.463 L 45.676 56.929 C 45.435 57.782 45.491 58.792 45.768 59.724 C 46.018 60.564 46.453 61.364 47.008 61.994 C 47.572 62.624 48.257 63.096 49.015 63.254 C 50.31 63.542 51.873 62.991 53.529 61.102 L 53.649 60.983 L 66.044 48.819 L 67.45 47.441 L 68.625 49.213 L 87.643 77.806 L 99.344 69.972 L 99.76 69.697 L 100.195 69.697 L 110 69.697 L 110 37.993 L 109.99 37.993 Z  M 123.995 34.975 L 113.996 34.975 L 113.996 75.129 L 123.995 75.129 L 123.995 34.975 Z  M 56.387 91.033 C 55.564 89.997 55.49 88.212 56.212 87.044 C 56.942 85.876 58.2 85.771 59.024 86.795 L 68.902 99.208 L 72.556 97.056 L 64.065 86.375 C 63.242 85.338 63.168 83.554 63.889 82.386 C 64.62 81.218 65.878 81.113 66.701 82.136 L 76.645 94.642 L 80.641 92.293 L 72.51 82.071 C 71.687 81.034 71.613 79.25 72.334 78.082 C 73.065 76.914 74.323 76.809 75.146 77.832 L 84.729 89.879 L 88.669 87.556 L 86.718 84.656 L 86.708 84.669 L 85.719 83.186 L 85.709 83.173 L 85.682 83.134 L 85.645 83.081 L 66.867 54.855 L 55.971 65.55 C 53.353 68.529 50.68 69.355 48.377 68.844 C 46.888 68.516 45.565 67.636 44.501 66.429 C 43.428 65.222 42.587 63.647 42.078 61.954 C 41.319 59.422 41.273 56.561 42.207 54.042 L 42.328 53.714 L 42.494 53.464 L 54.038 35.277 L 42.217 35.277 L 34.465 38.046 L 34.465 38.033 C 34.308 38.085 34.132 38.125 33.956 38.111 L 17.982 37.796 L 17.982 69.408 L 30.016 69.71 L 30.136 69.723 L 30.201 69.736 L 30.312 69.762 L 30.367 69.775 L 30.432 69.802 L 30.478 69.815 L 30.719 69.933 L 30.756 69.959 C 30.941 70.064 31.117 70.221 31.274 70.418 L 59.31 104.877 L 64.786 101.649 L 56.36 91.06 L 56.387 91.033 Z  M 13.986 34.975 L 3.987 34.975 L 3.987 75.129 L 13.986 75.129 L 13.986 34.975 Z " fill="rgb(255,255,255)"/></g></svg>