<?xml version="1.0" encoding="UTF-8" standalone="no"?><!-- Generator: Gravit.io --><svg xmlns="http://www.w3.org/2000/svg" xmlns:xlink="http://www.w3.org/1999/xlink" style="isolation:isolate" viewBox="0 0 64 64" width="64pt" height="64pt"><defs><clipPath id="_clipPath_n6OzQpiNMenVzHhs3qfey3hph5QSkqMG"><rect width="64" height="64"/></clipPath></defs><g clip-path="url(#_clipPath_n6OzQpiNMenVzHhs3qfey3hph5QSkqMG)"><g><path d=" M 62.933 61 L 62.933 18.155 L 50.133 18.155 L 50.314 61 L 46.933 61 L 46.933 27.1 L 34.133 27.1 L 34.133 61 L 31 61 L 31 58.25 L 31 36 L 18.133 36.045 L 18.133 61 L 14.933 61 L 14.933 46.109 L 2.133 46.109 L 2.133 61 L 1.067 61 C 0.478 61 0 62.382 0 63 C 0 63.618 0.478 64 1.067 64 L 2.133 64 L 14.933 64 L 18.133 64 L 30.933 64 L 34.133 64 L 46.933 64 L 50.133 64 L 62.933 64 C 63.522 64 64 62.618 64 62 C 64 61.382 63.522 61 62.933 61 Z  M 5 61 C 5 60.699 5 56.99 5 48.345 L 12 48.345 L 12 61 L 5 61 Z  M 21 61 L 21 38.282 L 28 38.282 L 28 61 L 21 61 Z  M 37 61 L 37 29.336 L 44 29.336 L 44 61 L 37 61 Z  M 53 61 L 53 20.391 L 60 20.391 L 60 61 L 53 61 Z " fill="rgb(255,255,255)"/><path d=" M 8.565 30.824 C 8.746 30.824 8.93 30.775 9.098 30.674 L 47.785 7.259 L 45.363 12.839 C 45.119 13.401 45.356 14.064 45.892 14.319 C 46.035 14.389 46.186 14.42 46.334 14.42 C 46.739 14.42 47.126 14.176 47.306 13.765 L 51.105 5.009 C 51.117 4.981 51.115 4.951 51.124 4.922 C 51.145 4.863 51.161 4.806 51.171 4.743 C 51.177 4.712 51.194 4.686 51.196 4.654 C 51.197 4.64 51.191 4.629 51.193 4.616 C 51.195 4.573 51.19 4.534 51.188 4.492 C 51.185 4.43 51.175 4.372 51.163 4.31 C 51.154 4.268 51.152 4.224 51.138 4.183 C 51.125 4.143 51.103 4.109 51.086 4.07 C 51.072 4.044 51.072 4.014 51.057 3.987 C 51.042 3.96 51.017 3.945 50.999 3.919 C 50.977 3.884 50.96 3.847 50.933 3.816 C 50.906 3.783 50.87 3.759 50.838 3.729 C 50.795 3.688 50.751 3.65 50.702 3.616 C 50.669 3.594 50.639 3.569 50.603 3.55 C 50.591 3.544 50.585 3.533 50.573 3.528 C 50.546 3.515 50.517 3.518 50.491 3.508 C 50.432 3.485 50.374 3.469 50.314 3.458 C 50.286 3.453 50.263 3.436 50.235 3.434 L 41.102 2.506 C 40.51 2.443 39.994 2.897 39.937 3.51 C 39.879 4.125 40.309 4.672 40.895 4.731 L 46.715 5.322 L 8.031 28.737 C 7.52 29.046 7.346 29.73 7.641 30.264 C 7.838 30.623 8.196 30.824 8.565 30.824 Z " fill="rgb(255,255,255)"/></g></g></svg>