<?xml version="1.0" encoding="UTF-8" standalone="no"?><!-- Generator: Gravit.io --><svg xmlns="http://www.w3.org/2000/svg" xmlns:xlink="http://www.w3.org/1999/xlink" style="isolation:isolate" viewBox="0 0 128 128" width="128pt" height="128pt"><defs><clipPath id="_clipPath_B4CsVyeR0S3Fbg97du5V5x2j8fGrQrcp"><rect width="128" height="128"/></clipPath></defs><g clip-path="url(#_clipPath_B4CsVyeR0S3Fbg97du5V5x2j8fGrQrcp)"><path d=" M 6 104 L 0 104 C 0 113.4 9.6 123 19 123 L 128 123 L 128 15 L 21 15 L 21 0 L 19 0 C 9.6 0 0 9.6 0 19 L 0 104 L 6 104 C 6 96.8 11.8 91 19 91 L 21 91 L 21 21 L 80 21 L 122 21 L 122 117 L 19 117 C 11.8 117 6 111.2 6 104 Z  M 15 85 C 10.6 85.5 8.7 86.8 6 90 L 6 19 C 6 12.5 8.8 7.1 15 6.2 L 15 85 Z " fill="rgb(255,255,255)"/><path d=" M 103 29 L 91 29 L 91 96.5 L 97 108.5 L 103 96.5 L 103 29 L 103 29 Z  M 99 33 L 99 44 L 95 44 L 95 33 L 99 33 L 99 33 Z  M 97 99.5 L 95 95.5 L 95 48 L 99 48 L 99 95.5 L 97 99.5 L 97 99.5 Z " fill="rgb(255,255,255)"/><path d=" M 42 77 L 42 81 L 50 81 L 45 108.7 L 48.9 109.4 L 54 81 L 66 81 L 71.1 109.4 L 75 108.7 L 70 81 L 78 81 L 78 77 L 69.3 77 L 67 63.8 C 70.1 61.6 72 57.9 72 54 C 72 48.1 67.7 43.1 62 42.2 L 62 29 L 58 29 L 58 42.2 C 52.3 43.2 48 48.1 48 54 C 48 57.9 49.9 61.5 53 63.8 L 50.7 77 L 42 77 L 42 77 Z  M 56.2 61 C 53.6 59.6 52 56.9 52 54 C 52 49.6 55.6 46 60 46 C 64.4 46 68 49.6 68 54 C 68 56.9 66.4 59.6 63.8 61 L 62.5 61.7 L 65.3 77 L 54.7 77 L 57.4 61.7 L 56.2 61 L 56.2 61 Z " fill="rgb(255,255,255)"/><g style="isolation:isolate"/></g></svg>